<?xml version="1.0" standalone="no"?>
<!DOCTYPE svg PUBLIC "-//W3C//DTD SVG 20010904//EN"
 "http://www.w3.org/TR/2001/REC-SVG-20010904/DTD/svg10.dtd">
<svg version="1.0" xmlns="http://www.w3.org/2000/svg"
 width="512.000000pt" height="512.000000pt" viewBox="0 0 512.000000 512.000000"
 preserveAspectRatio="xMidYMid meet">
<metadata>
Created by potrace 1.14, written by Peter Selinger 2001-2017
</metadata>
<g transform="translate(0.000000,512.000000) scale(0.100000,-0.100000)"
fill="#000000" stroke="none">
<path d="M2155 4809 c-611 -62 -1145 -424 -1416 -959 -24 -47 -51 -96 -61
-110 -25 -36 -82 -216 -107 -340 -31 -153 -43 -338 -31 -483 12 -147 14 -161
51 -307 81 -330 242 -605 500 -856 272 -263 600 -423 989 -480 155 -22 440
-15 585 16 351 74 657 236 903 478 547 540 687 1355 352 2047 -252 521 -746
888 -1317 979 -121 20 -336 27 -448 15z m300 -279 c345 -33 651 -172 897 -409
228 -218 371 -475 440 -788 31 -144 32 -444 0 -589 -75 -346 -247 -636 -505
-853 -293 -246 -633 -362 -1022 -348 -354 13 -644 125 -921 357 -357 300 -566
807 -523 1269 6 64 14 120 19 126 4 5 11 30 15 55 13 83 75 257 129 364 221
434 652 744 1121 805 169 23 210 24 350 11z"/>
<path d="M1885 4343 c6 -5 32 -26 58 -47 101 -80 199 -242 237 -391 25 -96 27
-260 5 -355 -16 -69 -90 -226 -128 -272 l-22 -27 3 114 c4 127 -17 236 -63
331 -26 53 -112 155 -100 119 3 -10 8 -53 12 -95 11 -153 -33 -258 -202 -485
-114 -154 -171 -253 -207 -360 -20 -61 -23 -89 -23 -220 0 -138 2 -156 28
-230 39 -110 96 -204 181 -292 118 -125 270 -212 442 -255 134 -32 318 -30
437 6 166 50 284 123 407 252 173 182 257 373 267 610 6 130 -4 209 -38 315
-20 62 -96 226 -109 234 -3 2 -4 -35 -2 -83 7 -154 -48 -326 -134 -421 -32
-36 -80 -71 -98 -71 -2 0 5 23 15 51 74 193 67 476 -17 711 -115 321 -351 615
-612 765 -42 24 -111 54 -152 67 -80 26 -202 45 -185 29z m479 -1345 c141
-161 226 -496 172 -680 -17 -61 -60 -125 -103 -156 -78 -56 -231 -66 -330 -22
-102 45 -152 121 -153 233 0 110 26 149 146 221 73 43 129 101 156 164 23 52
47 175 48 245 0 26 4 47 9 47 5 0 30 -24 55 -52z"/>
<path d="M3623 1737 c-98 -98 -113 -117 -113 -145 0 -44 38 -82 81 -82 28 0
48 16 141 108 127 126 139 153 90 202 -53 52 -71 45 -199 -83z"/>
<path d="M3923 1641 c-154 -40 -243 -200 -198 -357 16 -58 22 -64 448 -492
478 -480 485 -485 597 -486 161 -1 281 119 281 280 0 118 -3 122 -473 591
-454 453 -463 461 -571 468 -29 2 -66 0 -84 -4z"/>
</g>
</svg>
